<svg xmlns="http://www.w3.org/2000/svg" xmlns:xlink="http://www.w3.org/1999/xlink" width="163" height="25">
  <path class="text" d="M11.465 16.937H3.953l2.52-14.21h-3.34l-3.019 17.2h10.852zm7.215 3.195a3.744 3.744 0 003.554-1.932h.266l-.309 1.729h3.09l1.4-8.023a7.54 7.54 0 00.155-1.442c0-2.384-1.949-3.934-4.945-3.934-2.912 0-5.325 1.645-5.741 3.922h3.186a2.335 2.335 0 012.258-1.323c1.236 0 2.044.632 2.044 1.586a3.135 3.135 0 01-.059.489l-.131.787-2.936.072c-3.768.084-5.789 1.645-5.777 4.423a3.671 3.671 0 003.945 3.646zm1.26-2.611c-1.165 0-1.949-.608-1.949-1.514.012-1.156 1-1.836 2.722-1.872l2.377-.048-.19.954a2.969 2.969 0 01-2.96 2.48zM44.568 6.78H41.43l-2.63 9.251h-.413l.214-9.2h-2.686l-3.043 9.2h-.428l.606-9.251h-3.043l.321 13.149h2.829l3.352-8.821h.119l.166 8.821h2.853zm4.707 18.084c3.673 0 6.038-1.788 6.6-4.983l2.294-13.1h-3.236L54.5 9.248h-.221a3.731 3.731 0 00-3.887-2.682c-2.746 0-4.743 2.038-5.278 5.412l-.273 1.764a10.979 10.979 0 00-.143 1.645 4.284 4.284 0 008.19 1.9h.212l-.452 2.563a2.9 2.9 0 01-3.114 2.611c-1.45 0-2.508-.608-2.591-1.49v-.053h-3.171a1.112 1.112 0 00-.012.286c0 2.158 2.27 3.66 5.515 3.66zm2.056-15.545a2.353 2.353 0 012.508 2.372 6.868 6.868 0 01-.083.966l-.285 1.643a2.979 2.979 0 01-2.888 2.67 2.3 2.3 0 01-2.472-2.384 8.428 8.428 0 01.1-1.061l.25-1.49a2.963 2.963 0 012.87-2.716zM68.376 4.1A2.028 2.028 0 0070.6 2.036a2.235 2.235 0 00-4.457 0A2.032 2.032 0 0068.376 4.1zm2.5 15.831l.44-2.6h-3.962L69.22 6.78h-7.156l-.427 2.611h3.993l-1.438 7.939h-4.208l-.44 2.6h11.328zm15.785-3.7h-3.213a2.386 2.386 0 01-2.46 1.454 2.292 2.292 0 01-2.488-2.572 8.334 8.334 0 01.131-.977h8.487l.2-1.311a10.663 10.663 0 00.131-1.454c.131-2.8-2.1-4.864-5.278-4.864a6.09 6.09 0 00-6.288 5.138l-.268 1.525a9.915 9.915 0 00-.19 1.943c0 3.135 2.08 5.1 5.408 5.1 3.067.002 5.408-1.583 5.824-3.98zm-4.616-7.222a2.1 2.1 0 012.353 2.3 6.233 6.233 0 01-.071.739h-5.36c.012-.107.1-.465.119-.56a2.906 2.906 0 012.959-2.479zM95.952 14a4.976 4.976 0 017.334-3.5l.614-3.493a4.052 4.052 0 00-2.152-.572c-2.222 0-3.744 1.216-4.588 3.719h-.5l.588-3.374h-5.86l-.4 2.408h2.722l-1.474 8.345h-2.489l-.428 2.4h9.414l.416-2.4h-3.8zm14.691 6.151a2.689 2.689 0 10-2.615-2.682 2.655 2.655 0 002.615 2.686zm8.8-.227h3.245l1.355-7.725a3.088 3.088 0 013.019-2.849 2.032 2.032 0 012.2 2.11 6.809 6.809 0 01-.095 1.061l-1.308 7.4h3.257l1.367-7.8a8.17 8.17 0 00.155-1.562 3.787 3.787 0 00-4.03-4.065 4.17 4.17 0 00-3.91 2.456h-.179l.381-2.17h-3.162zm27.409-3.7h-3.209a2.386 2.386 0 01-2.46 1.454 2.292 2.292 0 01-2.484-2.575 8.4 8.4 0 01.13-.977h8.487l.2-1.311a10.567 10.567 0 00.131-1.454c.131-2.8-2.1-4.864-5.278-4.864a6.089 6.089 0 00-6.287 5.138l-.274 1.526a9.961 9.961 0 00-.19 1.943c0 3.135 2.08 5.1 5.408 5.1 3.065.011 5.406-1.574 5.822-3.971zM142.241 9a2.1 2.1 0 012.353 2.3 6.2 6.2 0 01-.071.739h-5.361c.012-.107.095-.465.119-.56a2.906 2.906 0 012.956-2.47zm13.379-5.975l-.665 3.886h-3.423l-.44 2.611h3.408l-1.126 6.178a7.507 7.507 0 00-.119 1.276c0 1.967 1.3 2.98 3.792 2.98.285 0 3.4-.024 3.53-.048l.44-2.575c-.143.012-2.413.024-2.758.024-1.117 0-1.676-.417-1.676-1.228a1.9 1.9 0 01.048-.393l1.129-6.211h4.814l.44-2.611h-4.886l.666-3.886h-3.174z" fill="#fff" fill-rule="evenodd"/>
  <path id="Underline" d="M43,22v2H0V22H43Zm12,2V22H164v2H55Z" fill="#fc7e0f"/>
  <style>
  /* <![CDATA[ */
  @keyframes colorChange {
    0%{fill:#f89438}
    16%{fill:#e65453}
    32%{fill:#a759a8}
    48%{fill:#32afe2}
    64%{fill:#76c261}
    96%{fill: #fdc345}
    100%{fill: #f89438}
  }
  .text {
    animation: colorChange 10s linear infinite;
  }
  .text:hover {
    animation: unset;
  }
  /* ]]> */
  </style>
</svg> 